<svg width="84" height="84" viewBox="0 0 84 84" fill="none" xmlns="http://www.w3.org/2000/svg">
<path d="M37.9031 6.31714C25.7109 6.31714 15.793 16.2351 15.793 28.4273C15.793 33.6769 17.676 38.7715 21.1015 42.7798C21.4868 43.2283 30.5843 53.8097 33.6402 56.7251C34.8358 57.8653 36.368 58.4339 37.9031 58.4339C39.4382 58.4339 40.972 57.8653 42.1691 56.7251C45.7193 53.3391 54.3462 43.2031 54.7078 42.7767C58.1286 38.7732 60.0133 33.6769 60.0133 28.4273C60.0133 16.2351 50.0953 6.31714 37.9031 6.31714ZM37.9031 20.5308C42.2636 20.5308 45.7996 24.0669 45.7996 28.4273C45.7996 32.7877 42.2636 36.3238 37.9031 36.3238C33.5427 36.3238 30.0066 32.7877 30.0066 28.4273C30.0066 24.0669 33.5427 20.5308 37.9031 20.5308ZM20.17 46.4967C12.9921 48.5703 7.89648 52.0425 7.89648 56.8546C7.89648 65.1491 22.9914 69.489 37.9031 69.489C52.8148 69.489 67.9098 65.1491 67.9098 56.8546C67.9098 52.0441 62.8172 48.5749 55.6424 46.4997C54.7296 47.5358 53.48 48.9484 52.1044 50.4819C59.0944 52.126 63.1719 54.7873 63.1719 56.8546C63.1719 60.0748 53.3281 64.7511 37.9031 64.7511C22.4781 64.7511 12.6344 60.0748 12.6344 56.8546C12.6344 54.7857 16.7193 52.1198 23.7203 50.4757C22.351 48.9517 21.0923 47.5374 20.17 46.4967Z" fill="white"/>
<g filter="url(#filter0_bii_17_51)">
<path d="M45.5261 13.9401C33.3339 13.9401 23.4159 23.858 23.4159 36.0502C23.4159 41.2998 25.299 46.3944 28.7245 50.4027C29.1098 50.8512 38.2073 61.4326 41.2632 64.348C42.4588 65.4882 43.991 66.0568 45.5261 66.0568C47.0612 66.0568 48.5949 65.4882 49.792 64.348C53.3423 60.962 61.9691 50.826 62.3308 50.3996C65.7515 46.3961 67.6362 41.2998 67.6362 36.0502C67.6362 23.858 57.7183 13.9401 45.5261 13.9401ZM45.5261 28.1537C49.8865 28.1537 53.4226 31.6898 53.4226 36.0502C53.4226 40.4107 49.8865 43.9467 45.5261 43.9467C41.1657 43.9467 37.6296 40.4107 37.6296 36.0502C37.6296 31.6898 41.1657 28.1537 45.5261 28.1537ZM27.7929 54.1196C20.615 56.1932 15.5195 59.6654 15.5195 64.4775C15.5195 72.772 30.6144 77.1119 45.5261 77.1119C60.4378 77.1119 75.5327 72.772 75.5327 64.4775C75.5327 59.667 70.4402 56.1979 63.2654 54.1227C62.3526 55.1587 61.103 56.5713 59.7274 58.1048C66.7174 59.7489 70.7948 62.4102 70.7948 64.4775C70.7948 67.6977 60.9511 72.374 45.5261 72.374C30.1011 72.374 20.2573 67.6977 20.2573 64.4775C20.2573 62.4087 24.3422 59.7427 31.3433 58.0987C29.974 56.5746 28.7152 55.1603 27.7929 54.1196Z" fill="white" fill-opacity="0.114"/>
</g>
<defs>
<filter id="filter0_bii_17_51" x="4.7022" y="3.12281" width="81.6478" height="84.8064" filterUnits="userSpaceOnUse" color-interpolation-filters="sRGB">
<feFlood flood-opacity="0" result="BackgroundImageFix"/>
<feGaussianBlur in="BackgroundImage" stdDeviation="3.89421"/>
<feComposite in2="SourceAlpha" operator="in" result="effect1_backgroundBlur_17_51"/>
<feBlend mode="normal" in="SourceGraphic" in2="effect1_backgroundBlur_17_51" result="shape"/>
<feColorMatrix in="SourceAlpha" type="matrix" values="0 0 0 0 0 0 0 0 0 0 0 0 0 0 0 0 0 0 127 0" result="hardAlpha"/>
<feOffset dx="-10.8173" dy="10.8173"/>
<feGaussianBlur stdDeviation="5.40863"/>
<feComposite in2="hardAlpha" operator="arithmetic" k2="-1" k3="1"/>
<feColorMatrix type="matrix" values="0 0 0 0 1 0 0 0 0 1 0 0 0 0 1 0 0 0 0.114 0"/>
<feBlend mode="normal" in2="shape" result="effect2_innerShadow_17_51"/>
<feColorMatrix in="SourceAlpha" type="matrix" values="0 0 0 0 0 0 0 0 0 0 0 0 0 0 0 0 0 0 127 0" result="hardAlpha"/>
<feOffset dx="10.8173" dy="-10.8173"/>
<feGaussianBlur stdDeviation="5.40863"/>
<feComposite in2="hardAlpha" operator="arithmetic" k2="-1" k3="1"/>
<feColorMatrix type="matrix" values="0 0 0 0 1 0 0 0 0 1 0 0 0 0 1 0 0 0 0.114 0"/>
<feBlend mode="normal" in2="effect2_innerShadow_17_51" result="effect3_innerShadow_17_51"/>
</filter>
</defs>
</svg>
