<svg width="84" height="84" viewBox="0 0 84 84" fill="none" xmlns="http://www.w3.org/2000/svg">
<path d="M66.3305 22.1102V19.7413C66.3305 14.0811 61.7252 9.47583 56.065 9.47583H19.7412C14.081 9.47583 9.47578 14.0811 9.47578 19.7413V22.1102H66.3305ZM9.47578 26.8481V56.0651C9.47578 61.7253 14.081 66.3305 19.7412 66.3305H56.065C61.7252 66.3305 66.3305 61.7253 66.3305 56.0651V26.8481H9.47578ZM24.4791 56.8547C22.2981 56.8547 20.5309 55.0875 20.5309 52.9065C20.5309 50.7255 22.2981 48.9582 24.4791 48.9582C26.6601 48.9582 28.4273 50.7255 28.4273 52.9065C28.4273 55.0875 26.6601 56.8547 24.4791 56.8547ZM24.4791 42.6411C22.2981 42.6411 20.5309 40.8738 20.5309 38.6928C20.5309 36.5118 22.2981 34.7446 24.4791 34.7446C26.6601 34.7446 28.4273 36.5118 28.4273 38.6928C28.4273 40.8738 26.6601 42.6411 24.4791 42.6411ZM37.9031 56.8547C35.7221 56.8547 33.9549 55.0875 33.9549 52.9065C33.9549 50.7255 35.7221 48.9582 37.9031 48.9582C40.0841 48.9582 41.8514 50.7255 41.8514 52.9065C41.8514 55.0875 40.0841 56.8547 37.9031 56.8547ZM37.9031 42.6411C35.7221 42.6411 33.9549 40.8738 33.9549 38.6928C33.9549 36.5118 35.7221 34.7446 37.9031 34.7446C40.0841 34.7446 41.8514 36.5118 41.8514 38.6928C41.8514 40.8738 40.0841 42.6411 37.9031 42.6411ZM51.3271 42.6411C49.1461 42.6411 47.3789 40.8738 47.3789 38.6928C47.3789 36.5118 49.1461 34.7446 51.3271 34.7446C53.5082 34.7446 55.2754 36.5118 55.2754 38.6928C55.2754 40.8738 53.5082 42.6411 51.3271 42.6411Z" fill="white"/>
<g filter="url(#filter0_bii_17_44)">
<path d="M73.9534 29.7331V27.3642C73.9534 21.704 69.3482 17.0988 63.688 17.0988H27.3642C21.704 17.0988 17.0988 21.704 17.0988 27.3642V29.7331H73.9534ZM17.0988 34.471V63.688C17.0988 69.3482 21.704 73.9534 27.3642 73.9534H63.688C69.3482 73.9534 73.9534 69.3482 73.9534 63.688V34.471H17.0988ZM32.1021 64.4777C29.9211 64.4777 28.1538 62.7104 28.1538 60.5294C28.1538 58.3484 29.9211 56.5812 32.1021 56.5812C34.2831 56.5812 36.0503 58.3484 36.0503 60.5294C36.0503 62.7104 34.2831 64.4777 32.1021 64.4777ZM32.1021 50.264C29.9211 50.264 28.1538 48.4967 28.1538 46.3157C28.1538 44.1347 29.9211 42.3675 32.1021 42.3675C34.2831 42.3675 36.0503 44.1347 36.0503 46.3157C36.0503 48.4967 34.2831 50.264 32.1021 50.264ZM45.5261 64.4777C43.3451 64.4777 41.5779 62.7104 41.5779 60.5294C41.5779 58.3484 43.3451 56.5812 45.5261 56.5812C47.7071 56.5812 49.4743 58.3484 49.4743 60.5294C49.4743 62.7104 47.7071 64.4777 45.5261 64.4777ZM45.5261 50.264C43.3451 50.264 41.5779 48.4967 41.5779 46.3157C41.5779 44.1347 43.3451 42.3675 45.5261 42.3675C47.7071 42.3675 49.4743 44.1347 49.4743 46.3157C49.4743 48.4967 47.7071 50.264 45.5261 50.264ZM58.9501 50.264C56.7691 50.264 55.0019 48.4967 55.0019 46.3157C55.0019 44.1347 56.7691 42.3675 58.9501 42.3675C61.1311 42.3675 62.8984 44.1347 62.8984 46.3157C62.8984 48.4967 61.1311 50.264 58.9501 50.264Z" fill="white" fill-opacity="0.114"/>
</g>
<defs>
<filter id="filter0_bii_17_44" x="6.2815" y="6.2815" width="78.4892" height="78.4891" filterUnits="userSpaceOnUse" color-interpolation-filters="sRGB">
<feFlood flood-opacity="0" result="BackgroundImageFix"/>
<feGaussianBlur in="BackgroundImage" stdDeviation="3.89421"/>
<feComposite in2="SourceAlpha" operator="in" result="effect1_backgroundBlur_17_44"/>
<feBlend mode="normal" in="SourceGraphic" in2="effect1_backgroundBlur_17_44" result="shape"/>
<feColorMatrix in="SourceAlpha" type="matrix" values="0 0 0 0 0 0 0 0 0 0 0 0 0 0 0 0 0 0 127 0" result="hardAlpha"/>
<feOffset dx="-10.8173" dy="10.8173"/>
<feGaussianBlur stdDeviation="5.40863"/>
<feComposite in2="hardAlpha" operator="arithmetic" k2="-1" k3="1"/>
<feColorMatrix type="matrix" values="0 0 0 0 1 0 0 0 0 1 0 0 0 0 1 0 0 0 0.114 0"/>
<feBlend mode="normal" in2="shape" result="effect2_innerShadow_17_44"/>
<feColorMatrix in="SourceAlpha" type="matrix" values="0 0 0 0 0 0 0 0 0 0 0 0 0 0 0 0 0 0 127 0" result="hardAlpha"/>
<feOffset dx="10.8173" dy="-10.8173"/>
<feGaussianBlur stdDeviation="5.40863"/>
<feComposite in2="hardAlpha" operator="arithmetic" k2="-1" k3="1"/>
<feColorMatrix type="matrix" values="0 0 0 0 1 0 0 0 0 1 0 0 0 0 1 0 0 0 0.114 0"/>
<feBlend mode="normal" in2="effect2_innerShadow_17_44" result="effect3_innerShadow_17_44"/>
</filter>
</defs>
</svg>
