<svg width="84" height="84" viewBox="0 0 84 84" fill="none" xmlns="http://www.w3.org/2000/svg">
<path d="M53.693 9.47583C50.2059 9.47583 47.3789 12.306 47.3789 15.7899C47.3789 19.2802 50.2059 22.1102 53.693 22.1102C57.188 22.1102 60.0132 19.2802 60.0132 15.7899C60.0132 12.306 57.188 9.47583 53.693 9.47583ZM27.5359 19.7413C25.6619 19.7413 23.8824 20.5763 22.6839 22.0146L15.7343 30.3522C15.4685 30.6709 15.2681 31.039 15.1446 31.4352C15.021 31.8314 14.9767 32.2481 15.0142 32.6615C15.0517 33.0749 15.1702 33.4768 15.3631 33.8443C15.5559 34.2119 15.8193 34.5378 16.1381 34.8036C16.4569 35.0693 16.825 35.2697 17.2212 35.3932C17.6175 35.5167 18.0342 35.5609 18.4475 35.5233C18.8609 35.4858 19.2628 35.3672 19.6303 35.1743C19.9978 34.9814 20.3237 34.718 20.5894 34.3991L27.3724 26.2559L35.3429 27.1504L28.1004 37.3233C27.3247 38.3722 26.848 39.6554 26.848 41.0587C26.848 43.3646 28.0957 45.3621 29.9388 46.4659L29.9357 46.4721L42.9772 53.4617L45.0099 66.9721V67.1201C45.004 67.5387 45.0813 67.9543 45.2374 68.3427C45.3935 68.7311 45.6252 69.0846 45.9191 69.3827C46.213 69.6807 46.5632 69.9174 46.9493 70.079C47.3355 70.2405 47.7499 70.3237 48.1685 70.3237C48.5871 70.3237 49.0015 70.2405 49.3877 70.079C49.7739 69.9174 50.1241 69.6807 50.4179 69.3827C50.7118 69.0846 50.9436 68.7311 51.0996 68.3427C51.2557 67.9543 51.333 67.5387 51.3271 67.1201V49.7479C51.3269 49.2094 51.1891 48.6799 50.9268 48.2097C50.6644 47.7395 50.2862 47.3442 49.828 47.0612L40.5867 41.3548L46.0772 33.5015L48.4646 36.8668L48.4924 36.9254C48.7525 37.4555 49.156 37.902 49.657 38.2145C50.1581 38.5269 50.7366 38.6926 51.3271 38.6928H62.3822C62.8007 38.6987 63.2163 38.6214 63.6047 38.4653C63.9931 38.3093 64.3466 38.0775 64.6447 37.7836C64.9428 37.4898 65.1795 37.1396 65.341 36.7534C65.5026 36.3672 65.5858 35.9528 65.5858 35.5342C65.5858 35.1156 65.5026 34.7012 65.341 34.315C65.1795 33.9289 64.9428 33.5787 64.6447 33.2848C64.3466 32.9909 63.9931 32.7592 63.6047 32.6031C63.2163 32.447 62.8007 32.3697 62.3822 32.3756H53.2951L49.2142 24.0627C49.1762 23.985 49.135 23.9088 49.0908 23.8345C47.9333 21.895 46.0616 20.7129 44.3961 20.2194C42.7306 19.7258 41.2423 19.7413 40.1579 19.7413H27.5359ZM27.2367 48.6652L25.2348 53.2612L14.1211 54.4858H13.424C13.0055 54.4799 12.5899 54.5572 12.2015 54.7133C11.8131 54.8693 11.4596 55.1011 11.1615 55.3949C10.8634 55.6888 10.6267 56.039 10.4652 56.4252C10.3036 56.8114 10.2204 57.2258 10.2204 57.6444C10.2204 58.063 10.3036 58.4774 10.4652 58.8635C10.6267 59.2497 10.8634 59.5999 11.1615 59.8938C11.4596 60.1877 11.8131 60.4194 12.2015 60.5755C12.5899 60.7316 13.0055 60.8089 13.424 60.803H27.6377C28.308 60.8116 28.9637 60.6067 29.5099 60.218C30.0561 59.8293 30.4645 59.2769 30.676 58.6407L34.507 52.2526C32.6561 51.4961 29.0639 49.597 27.2367 48.6652Z" fill="white"/>
<g filter="url(#filter0_bii_17_58)">
<path d="M61.316 17.0988C57.8289 17.0988 55.0019 19.9289 55.0019 23.4129C55.0019 26.9031 57.8289 29.7331 61.316 29.7331C64.8109 29.7331 67.6362 26.9031 67.6362 23.4129C67.6362 19.9289 64.8109 17.0988 61.316 17.0988ZM35.1589 27.3642C33.2849 27.3642 31.5054 28.1992 30.3069 29.6375L23.3573 37.9751C23.0915 38.2939 22.8911 38.6619 22.7676 39.0581C22.644 39.4544 22.5997 39.8711 22.6372 40.2844C22.6747 40.6978 22.7932 41.0997 22.9861 41.4672C23.1789 41.8348 23.4423 42.1607 23.7611 42.4265C24.0799 42.6922 24.448 42.8926 24.8442 43.0161C25.2405 43.1396 25.6572 43.1838 26.0705 43.1463C26.4839 43.1087 26.8858 42.9901 27.2533 42.7972C27.6208 42.6043 27.9467 42.3409 28.2124 42.022L34.9954 33.8788L42.9659 34.7733L35.7233 44.9462C34.9477 45.9951 34.471 47.2783 34.471 48.6816C34.471 50.9875 35.7187 52.985 37.5617 54.0888L37.5587 54.095L50.6002 61.0846L52.6329 74.595V74.7431C52.627 75.1616 52.7043 75.5772 52.8604 75.9656C53.0165 76.354 53.2482 76.7075 53.5421 77.0056C53.836 77.3037 54.1862 77.5403 54.5723 77.7019C54.9585 77.8635 55.3729 77.9467 55.7915 77.9467C56.2101 77.9467 56.6245 77.8635 57.0107 77.7019C57.3968 77.5403 57.747 77.3037 58.0409 77.0056C58.3348 76.7075 58.5665 76.354 58.7226 75.9656C58.8787 75.5772 58.956 75.1616 58.9501 74.7431V57.3708C58.9499 56.8323 58.8121 56.3029 58.5497 55.8326C58.2874 55.3624 57.9091 54.9671 57.451 54.6842L48.2097 48.9777L53.7002 41.1244L56.0876 44.4897L56.1154 44.5483C56.3755 45.0784 56.7789 45.525 57.28 45.8374C57.781 46.1498 58.3596 46.3155 58.9501 46.3157H70.0052C70.4237 46.3217 70.8393 46.2443 71.2277 46.0883C71.6161 45.9322 71.9696 45.7005 72.2677 45.4066C72.5658 45.1127 72.8025 44.7625 72.964 44.3763C73.1256 43.9902 73.2088 43.5757 73.2088 43.1571C73.2088 42.7386 73.1256 42.3241 72.964 41.938C72.8025 41.5518 72.5658 41.2016 72.2677 40.9077C71.9696 40.6138 71.6161 40.3821 71.2277 40.226C70.8393 40.07 70.4237 39.9926 70.0052 39.9986H60.9181L56.8372 31.6857C56.7992 31.6079 56.758 31.5318 56.7138 31.4574C55.5563 29.5179 53.6846 28.3359 52.0191 27.8423C50.3536 27.3487 48.8653 27.3642 47.7809 27.3642H35.1589ZM34.8597 56.2881L32.8578 60.8841L21.7441 62.1087H21.047C20.6284 62.1028 20.2129 62.1801 19.8245 62.3362C19.4361 62.4923 19.0826 62.724 18.7845 63.0179C18.4864 63.3118 18.2497 63.662 18.0882 64.0481C17.9266 64.4343 17.8434 64.8487 17.8434 65.2673C17.8434 65.6859 17.9266 66.1003 18.0882 66.4865C18.2497 66.8726 18.4864 67.2228 18.7845 67.5167C19.0826 67.8106 19.4361 68.0423 19.8245 68.1984C20.2129 68.3545 20.6284 68.4318 21.047 68.4259H35.2607C35.931 68.4345 36.5867 68.2296 37.1329 67.8409C37.6791 67.4522 38.0875 66.8998 38.299 66.2636L42.13 59.8755C40.279 59.119 36.6869 57.2199 34.8597 56.2881Z" fill="white" fill-opacity="0.114"/>
</g>
<defs>
<filter id="filter0_bii_17_58" x="7.02616" y="6.2815" width="76.9998" height="82.4824" filterUnits="userSpaceOnUse" color-interpolation-filters="sRGB">
<feFlood flood-opacity="0" result="BackgroundImageFix"/>
<feGaussianBlur in="BackgroundImage" stdDeviation="3.89421"/>
<feComposite in2="SourceAlpha" operator="in" result="effect1_backgroundBlur_17_58"/>
<feBlend mode="normal" in="SourceGraphic" in2="effect1_backgroundBlur_17_58" result="shape"/>
<feColorMatrix in="SourceAlpha" type="matrix" values="0 0 0 0 0 0 0 0 0 0 0 0 0 0 0 0 0 0 127 0" result="hardAlpha"/>
<feOffset dx="-10.8173" dy="10.8173"/>
<feGaussianBlur stdDeviation="5.40863"/>
<feComposite in2="hardAlpha" operator="arithmetic" k2="-1" k3="1"/>
<feColorMatrix type="matrix" values="0 0 0 0 1 0 0 0 0 1 0 0 0 0 1 0 0 0 0.114 0"/>
<feBlend mode="normal" in2="shape" result="effect2_innerShadow_17_58"/>
<feColorMatrix in="SourceAlpha" type="matrix" values="0 0 0 0 0 0 0 0 0 0 0 0 0 0 0 0 0 0 127 0" result="hardAlpha"/>
<feOffset dx="10.8173" dy="-10.8173"/>
<feGaussianBlur stdDeviation="5.40863"/>
<feComposite in2="hardAlpha" operator="arithmetic" k2="-1" k3="1"/>
<feColorMatrix type="matrix" values="0 0 0 0 1 0 0 0 0 1 0 0 0 0 1 0 0 0 0.114 0"/>
<feBlend mode="normal" in2="effect2_innerShadow_17_58" result="effect3_innerShadow_17_58"/>
</filter>
</defs>
</svg>
