<svg width="80" height="80" viewBox="0 0 80 80" fill="none" xmlns="http://www.w3.org/2000/svg">
<g clip-path="url(#clip0_17_38)">
<path d="M39.4794 6.31714C38.2228 6.31714 37.0177 6.81631 36.1292 7.70483C35.2406 8.59336 34.7415 9.79846 34.7415 11.055C34.7415 12.3116 35.2406 13.5167 36.1292 14.4052C37.0177 15.2937 38.2228 15.7929 39.4794 15.7929C40.7359 15.7929 41.941 15.2937 42.8295 14.4052C43.7181 13.5167 44.2172 12.3116 44.2172 11.055C44.2172 9.79846 43.7181 8.59336 42.8295 7.70483C41.941 6.81631 40.7359 6.31714 39.4794 6.31714ZM18.9485 11.8447C18.5065 11.8444 18.0693 11.9369 17.6653 12.1161L10.5585 15.2747C10.1793 15.4432 9.83709 15.6848 9.55129 15.9855C9.26549 16.2863 9.04173 16.6404 8.89279 17.0277C8.74385 17.4149 8.67264 17.8277 8.68323 18.2425C8.69382 18.6573 8.786 19.0659 8.95451 19.445C9.12302 19.8242 9.36456 20.1664 9.66533 20.4522C9.96611 20.738 10.3202 20.9618 10.7075 21.1107C11.0947 21.2597 11.5075 21.3309 11.9223 21.3203C12.3371 21.3097 12.7457 21.2175 13.1248 21.049L19.6178 18.1619H22.3446L17.0206 23.0386C16.8907 23.1409 16.769 23.2533 16.6567 23.3748L15.8022 24.1582L15.7899 24.1521L12.4185 33.196L4.56209 38.4336C4.01797 38.7856 3.59528 39.2965 3.35137 39.8969C3.10746 40.4974 3.05412 41.1583 3.19859 41.79C3.34306 42.4218 3.67835 42.9938 4.15898 43.4286C4.63961 43.8633 5.24232 44.1397 5.88537 44.2202H2.36588C2.05197 44.2158 1.7403 44.2738 1.449 44.3909C1.15769 44.5079 0.892557 44.6817 0.669 44.9021C0.445444 45.1225 0.267924 45.3852 0.146758 45.6748C0.0255919 45.9644 -0.0368042 46.2752 -0.0368042 46.5892C-0.0368042 46.9031 0.0255919 47.2139 0.146758 47.5036C0.267924 47.7932 0.445444 48.0558 0.669 48.2763C0.892557 48.4967 1.15769 48.6705 1.449 48.7875C1.7403 48.9046 2.05197 48.9626 2.36588 48.9581H8.68307C8.99698 48.9626 9.30865 48.9046 9.59995 48.7875C9.89126 48.6705 10.1564 48.4967 10.3799 48.2763C10.6035 48.0558 10.781 47.7932 10.9022 47.5036C11.0234 47.2139 11.0858 46.9031 11.0858 46.5892C11.0858 46.2752 11.0234 45.9644 10.9022 45.6748C10.781 45.3852 10.6035 45.1225 10.3799 44.9021C10.1564 44.6817 9.89126 44.5079 9.59995 44.3909C9.30865 44.2738 8.99698 44.2158 8.68307 44.2202H6.68427C7.18042 44.1553 7.65405 43.9735 8.06615 43.6897L14.3772 39.4824H25.2657C25.7512 39.4823 26.2302 39.3703 26.6654 39.1551C27.1006 38.9398 27.4804 38.6272 27.7752 38.2414C28.07 37.8556 28.2719 37.407 28.3652 36.9306C28.4585 36.4541 28.4407 35.9625 28.3132 35.494L25.9936 26.993L32.9678 22.2674C34.5646 24.8259 36.1223 28.1509 37.3479 31.1263C37.667 31.901 38.2807 32.5172 39.0541 32.8394C39.8275 33.1617 40.6973 33.1634 41.472 32.8444C42.2467 32.5253 42.8629 31.9116 43.1852 31.1382C43.5074 30.3648 43.5091 29.495 43.1901 28.7203C41.8079 25.3648 40.0507 21.508 37.9463 18.2883C36.8941 16.6785 35.7618 15.2197 34.3991 14.0347C33.0363 12.8498 31.3163 11.8447 29.2139 11.8447H18.9485ZM66.3274 30.0066C65.0708 30.0066 63.8657 30.5057 62.9772 31.3943C62.0887 32.2828 61.5895 33.4879 61.5895 34.7445C61.5895 36.001 62.0887 37.2061 62.9772 38.0947C63.8657 38.9832 65.0708 39.4824 66.3274 39.4824C67.584 39.4824 68.7891 38.9832 69.6776 38.0947C70.5661 37.2061 71.0653 36.001 71.0653 34.7445C71.0653 33.4879 70.5661 32.2828 69.6776 31.3943C68.7891 30.5057 67.584 30.0066 66.3274 30.0066ZM45.7965 35.5341C45.3545 35.5338 44.9174 35.6263 44.5134 35.8056L37.4065 38.9641C36.6408 39.3045 36.0416 39.935 35.7408 40.7171C35.44 41.4992 35.4622 42.3688 35.8026 43.1345C36.1429 43.9002 36.7734 44.4994 37.5555 44.8002C38.3376 45.101 39.2072 45.0788 39.9729 44.7385L46.4659 41.8513H49.1926L43.8687 46.728C43.7387 46.8304 43.617 46.9428 43.5047 47.0642L42.6379 47.8569L39.3806 56.8114L31.4101 62.123C30.866 62.4751 30.4433 62.986 30.1994 63.5864C29.9555 64.1868 29.9022 64.8477 30.0466 65.4795C30.1911 66.1112 30.5264 66.6833 31.007 67.118C31.4877 67.5527 32.0904 67.8291 32.7334 67.9097H29.2139C28.9 67.9052 28.5883 67.9632 28.297 68.0803C28.0057 68.1974 27.7406 68.3711 27.517 68.5916C27.2935 68.812 27.116 69.0746 26.9948 69.3643C26.8736 69.6539 26.8112 69.9647 26.8112 70.2786C26.8112 70.5926 26.8736 70.9034 26.9948 71.193C27.116 71.4826 27.2935 71.7453 27.517 71.9657C27.7406 72.1861 28.0057 72.3599 28.297 72.477C28.5883 72.594 28.9 72.652 29.2139 72.6476H35.5311C35.845 72.652 36.1567 72.594 36.448 72.477C36.7393 72.3599 37.0044 72.1861 37.228 71.9657C37.4515 71.7453 37.6291 71.4826 37.7502 71.193C37.8714 70.9034 37.9338 70.5926 37.9338 70.2786C37.9338 69.9647 37.8714 69.6539 37.7502 69.3643C37.6291 69.0746 37.4515 68.812 37.228 68.5916C37.0044 68.3711 36.7393 68.1974 36.448 68.0803C36.1567 67.9632 35.845 67.9052 35.5311 67.9097H33.5323C34.0285 67.8448 34.5021 67.6629 34.9142 67.3791L41.2252 63.1718H52.1137C52.5993 63.1717 53.0782 63.0597 53.5135 62.8445C53.9487 62.6293 54.3284 62.3166 54.6232 61.9308C54.918 61.545 55.1199 61.0965 55.2132 60.62C55.3065 60.1435 55.2888 59.652 55.1613 59.1835L52.8417 50.6824L59.8251 45.9507C59.8687 46.0203 59.9112 46.0712 59.9547 46.1419C61.8081 49.1603 63.5664 53.1888 64.8468 56.4351C64.9991 56.8211 65.226 57.1734 65.5144 57.4718C65.8028 57.7701 66.1472 58.0087 66.5279 58.174C66.9086 58.3393 67.318 58.428 67.733 58.435C68.1479 58.442 68.5602 58.3672 68.9462 58.2149C69.3322 58.0626 69.6845 57.8358 69.9828 57.5473C70.2812 57.2589 70.5198 56.9145 70.6851 56.5338C70.8504 56.1532 70.939 55.7437 70.9461 55.3287C70.9531 54.9138 70.8783 54.5016 70.726 54.1155C69.3816 50.7067 67.5533 46.4444 65.3372 42.8353C64.2292 41.0307 63.034 39.3799 61.5988 38.0388C60.1636 36.6977 58.3481 35.5341 56.062 35.5341H45.7965Z" fill="white"/>
</g>
<g filter="url(#filter0_bii_17_38)">
<path d="M47.9861 12.705C46.7295 12.705 45.5244 13.2041 44.6359 14.0927C43.7473 14.9812 43.2482 16.1863 43.2482 17.4428C43.2482 18.6994 43.7473 19.9045 44.6359 20.793C45.5244 21.6816 46.7295 22.1807 47.9861 22.1807C49.2426 22.1807 50.4477 21.6816 51.3363 20.793C52.2248 19.9045 52.7239 18.6994 52.7239 17.4428C52.7239 16.1863 52.2248 14.9812 51.3363 14.0927C50.4477 13.2041 49.2426 12.705 47.9861 12.705ZM27.4552 18.2325C27.0132 18.2322 26.5761 18.3247 26.172 18.5039L19.0652 21.6625C18.686 21.831 18.3438 22.0726 18.058 22.3733C17.7722 22.6741 17.5484 23.0282 17.3995 23.4155C17.2506 23.8028 17.1794 24.2155 17.1899 24.6303C17.2005 25.0451 17.2927 25.4537 17.4612 25.8329C17.6297 26.212 17.8713 26.5542 18.172 26.84C18.4728 27.1258 18.8269 27.3496 19.2142 27.4985C19.6014 27.6475 20.0142 27.7187 20.429 27.7081C20.8438 27.6975 21.2524 27.6053 21.6315 27.4368L28.1246 24.5497H30.8513L25.5274 29.4264C25.3974 29.5287 25.2757 29.6412 25.1634 29.7626L24.309 30.5461L24.2966 30.5399L20.9252 39.5838L13.0688 44.8214C12.5247 45.1735 12.102 45.6843 11.8581 46.2848C11.6142 46.8852 11.5608 47.5461 11.7053 48.1779C11.8498 48.8096 12.1851 49.3817 12.6657 49.8164C13.1463 50.2511 13.749 50.5275 14.3921 50.6081H10.8726C10.5587 50.6036 10.247 50.6616 9.95571 50.7787C9.66441 50.8957 9.39927 51.0695 9.17571 51.2899C8.95216 51.5104 8.77464 51.773 8.65347 52.0626C8.53231 52.3523 8.46991 52.6631 8.46991 52.977C8.46991 53.291 8.53231 53.6018 8.65347 53.8914C8.77464 54.181 8.95216 54.4437 9.17571 54.6641C9.39927 54.8845 9.66441 55.0583 9.95571 55.1753C10.247 55.2924 10.5587 55.3504 10.8726 55.346H17.1898C17.5037 55.3504 17.8154 55.2924 18.1067 55.1753C18.398 55.0583 18.6631 54.8845 18.8867 54.6641C19.1102 54.4437 19.2877 54.181 19.4089 53.8914C19.5301 53.6018 19.5925 53.291 19.5925 52.977C19.5925 52.6631 19.5301 52.3523 19.4089 52.0626C19.2877 51.773 19.1102 51.5104 18.8867 51.2899C18.6631 51.0695 18.398 50.8957 18.1067 50.7787C17.8154 50.6616 17.5037 50.6036 17.1898 50.6081H15.191C15.6871 50.5432 16.1608 50.3613 16.5729 50.0775L22.8839 45.8702H33.7724C34.2579 45.8701 34.7369 45.7581 35.1721 45.5429C35.6073 45.3277 35.9871 45.015 36.2819 44.6292C36.5767 44.2434 36.7786 43.7949 36.8719 43.3184C36.9652 42.8419 36.9474 42.3503 36.8199 41.8818L34.5003 33.3808L41.4745 28.6552C43.0713 31.2137 44.629 34.5387 45.8546 37.5141C46.1737 38.2888 46.7874 38.9051 47.5608 39.2273C48.3342 39.5495 49.204 39.5512 49.9787 39.2322C50.7534 38.9131 51.3697 38.2994 51.6919 37.526C52.0141 36.7526 52.0158 35.8829 51.6968 35.1081C50.3146 31.7526 48.5574 27.8958 46.453 24.6761C45.4008 23.0663 44.2685 21.6075 42.9058 20.4225C41.543 19.2376 39.823 18.2325 37.7206 18.2325H27.4552ZM74.8341 36.3944C73.5775 36.3944 72.3724 36.8936 71.4839 37.7821C70.5954 38.6706 70.0962 39.8757 70.0962 41.1323C70.0962 42.3889 70.5954 43.594 71.4839 44.4825C72.3724 45.371 73.5775 45.8702 74.8341 45.8702C76.0907 45.8702 77.2958 45.371 78.1843 44.4825C79.0728 43.594 79.572 42.3889 79.572 41.1323C79.572 39.8757 79.0728 38.6706 78.1843 37.7821C77.2958 36.8936 76.0907 36.3944 74.8341 36.3944ZM54.3032 41.9219C53.8612 41.9216 53.4241 42.0141 53.0201 42.1934L45.9132 45.352C45.1475 45.6923 44.5483 46.3229 44.2475 47.1049C43.9467 47.887 43.9689 48.7566 44.3093 49.5223C44.6496 50.288 45.2801 50.8872 46.0622 51.188C46.8443 51.4888 47.7139 51.4666 48.4796 51.1263L54.9726 48.2391H57.6993L52.3754 53.1158C52.2454 53.2182 52.1237 53.3306 52.0114 53.452L51.1447 54.2448L47.8874 63.1993L39.9168 68.5109C39.3727 68.8629 38.95 69.3738 38.7061 69.9742C38.4622 70.5746 38.4089 71.2355 38.5533 71.8673C38.6978 72.4991 39.0331 73.0711 39.5137 73.5058C39.9944 73.9406 40.5971 74.217 41.2401 74.2975H37.7206C37.4067 74.2931 37.0951 74.3511 36.8037 74.4681C36.5124 74.5852 36.2473 74.759 36.0238 74.9794C35.8002 75.1998 35.6227 75.4625 35.5015 75.7521C35.3803 76.0417 35.3179 76.3525 35.3179 76.6665C35.3179 76.9804 35.3803 77.2912 35.5015 77.5808C35.6227 77.8705 35.8002 78.1331 36.0238 78.3535C36.2473 78.5739 36.5124 78.7477 36.8037 78.8648C37.0951 78.9818 37.4067 79.0398 37.7206 79.0354H44.0378C44.3517 79.0398 44.6634 78.9818 44.9547 78.8648C45.246 78.7477 45.5111 78.5739 45.7347 78.3535C45.9583 78.1331 46.1358 77.8705 46.2569 77.5808C46.3781 77.2912 46.4405 76.9804 46.4405 76.6665C46.4405 76.3525 46.3781 76.0417 46.2569 75.7521C46.1358 75.4625 45.9583 75.1998 45.7347 74.9794C45.5111 74.759 45.246 74.5852 44.9547 74.4681C44.6634 74.3511 44.3517 74.2931 44.0378 74.2975H42.039C42.5352 74.2326 43.0088 74.0508 43.4209 73.767L49.7319 69.5596H60.6204C61.106 69.5595 61.5849 69.4475 62.0202 69.2323C62.4554 69.0171 62.8351 68.7045 63.1299 68.3187C63.4247 67.9329 63.6266 67.4843 63.7199 67.0078C63.8132 66.5314 63.7955 66.0398 63.668 65.5713L61.3484 57.0702L68.3318 52.3385C68.3754 52.4081 68.4179 52.459 68.4614 52.5298C70.3148 55.5482 72.0731 59.5766 73.3535 62.8229C73.5058 63.209 73.7327 63.5612 74.0211 63.8596C74.3095 64.1579 74.6539 64.3966 75.0346 64.5618C75.4153 64.7271 75.8247 64.8158 76.2397 64.8228C76.6546 64.8298 77.0669 64.755 77.4529 64.6027C77.8389 64.4504 78.1912 64.2236 78.4895 63.9351C78.7879 63.6467 79.0265 63.3023 79.1918 62.9216C79.3571 62.541 79.4457 62.1315 79.4528 61.7166C79.4598 61.3016 79.385 60.8894 79.2327 60.5033C77.8883 57.0946 76.06 52.8322 73.8439 49.2231C72.7359 47.4185 71.5407 45.7677 70.1055 44.4266C68.6703 43.0855 66.8548 41.9219 64.5687 41.9219H54.3032Z" fill="white" fill-opacity="0.114"/>
</g>
<defs>
<filter id="filter0_bii_17_38" x="-2.34735" y="1.8877" width="92.7366" height="87.9652" filterUnits="userSpaceOnUse" color-interpolation-filters="sRGB">
<feFlood flood-opacity="0" result="BackgroundImageFix"/>
<feGaussianBlur in="BackgroundImage" stdDeviation="3.89421"/>
<feComposite in2="SourceAlpha" operator="in" result="effect1_backgroundBlur_17_38"/>
<feBlend mode="normal" in="SourceGraphic" in2="effect1_backgroundBlur_17_38" result="shape"/>
<feColorMatrix in="SourceAlpha" type="matrix" values="0 0 0 0 0 0 0 0 0 0 0 0 0 0 0 0 0 0 127 0" result="hardAlpha"/>
<feOffset dx="-10.8173" dy="10.8173"/>
<feGaussianBlur stdDeviation="5.40863"/>
<feComposite in2="hardAlpha" operator="arithmetic" k2="-1" k3="1"/>
<feColorMatrix type="matrix" values="0 0 0 0 1 0 0 0 0 1 0 0 0 0 1 0 0 0 0.114 0"/>
<feBlend mode="normal" in2="shape" result="effect2_innerShadow_17_38"/>
<feColorMatrix in="SourceAlpha" type="matrix" values="0 0 0 0 0 0 0 0 0 0 0 0 0 0 0 0 0 0 127 0" result="hardAlpha"/>
<feOffset dx="10.8173" dy="-10.8173"/>
<feGaussianBlur stdDeviation="5.40863"/>
<feComposite in2="hardAlpha" operator="arithmetic" k2="-1" k3="1"/>
<feColorMatrix type="matrix" values="0 0 0 0 1 0 0 0 0 1 0 0 0 0 1 0 0 0 0.114 0"/>
<feBlend mode="normal" in2="effect2_innerShadow_17_38" result="effect3_innerShadow_17_38"/>
</filter>
<clipPath id="clip0_17_38">
<rect width="75.8062" height="75.8062" fill="white"/>
</clipPath>
</defs>
</svg>
